<svg xmlns="http://www.w3.org/2000/svg" width="960" height="640" viewBox="0 0 960 640"><defs><pattern id="hatch" width="7" height="7" patternUnits="userSpaceOnUse"><rect width="7" height="7" fill="#ddd"/><path d="M0 7L7 0" stroke="#888"/></pattern><marker id="arrow" markerWidth="7" markerHeight="7" refX="6" refY="3" orient="auto"><path d="M0 0L6 3L0 6" fill="#a82050"/></marker></defs><rect width="960" height="640" fill="white"/><text x="20" y="28" font-family="Arial" font-size="20">D10 · P2 arrival: body clearance is not evidence concealment</text><text x="20" y="50" font-family="Arial" font-size="12">DESIGNER ONLY · P2 paper geometry; coordinate schedule governs. Not a participant card.</text><rect x="87.75" y="130" width="34.5" height="30" fill="none" stroke="#135ea0" stroke-width="3"/><rect x="185.5" y="270" width="138" height="120" fill="none" stroke="#135ea0" stroke-width="3"/><rect x="105" y="450" width="500.25" height="18" fill="none" stroke="#135ea0" stroke-width="3"/><rect x="70.5" y="500" width="586.5" height="6" fill="#d5d7da" stroke="#222" /><path d="M70.5 470L277.5 500" stroke="#222" stroke-width="3"/><rect x="645.5" y="195" width="11.5" height="305" fill="url(#hatch)" stroke="#222" /><rect x="496" y="195" width="161" height="15" fill="url(#hatch)" stroke="#222" /><circle cx="530.5" cy="300" r="6" fill="#a82050"/><line x1="530.5" y1="300" x2="645.5" y2="300" stroke="#a82050" stroke-width="2" /><line x1="530.5" y1="300" x2="645.5" y2="457.8" stroke="#a82050" stroke-width="2" stroke-dasharray="4 3"/><line x1="105" y1="140" x2="645.5" y2="411.355" stroke="#777" stroke-width="3" stroke-dasharray="8 4"/><line x1="530.5" y1="300" x2="645.5" y2="411.355" stroke="#a82050" stroke-width="3" marker-end="url(#arrow)"/><line x1="645.5" y1="428" x2="645.5" y2="399" stroke="#14834a" stroke-width="7" /><text x="50" y="90" font-family="Arial" font-size="13">North–height slice; x=0. Body PASS / exterior shadow FAIL.</text><text x="70" y="117" font-family="Arial" font-size="13">collar</text><text x="166" y="240" font-family="Arial" font-size="13">Cube</text><text x="398" y="165" font-family="Arial" font-size="13">fixed roof, z=2.4 underside</text><text x="690" y="201" font-family="Arial" font-size="13">wall y=4.7</text><text x="690" y="233" font-family="Arial" font-size="13">shadow z=0.3865</text><text x="390" y="279" font-family="Arial" font-size="13">eye (y=3.7,z=1.5)</text><text x="689" y="311" font-family="Arial" font-size="13">hidden collar's shadow</text><text x="689" y="335" font-family="Arial" font-size="13">visible at ~48.1° down</text><text x="690" y="381" font-family="Arial" font-size="13">30° incoming light</text><text x="690" y="405" font-family="Arial" font-size="13">is not a Beam</text><text x="290" y="487" font-family="Arial" font-size="13">structural top z=0 / underside -0.18</text><text x="400" y="527" font-family="Arial" font-size="13">lower fixed bed z=-0.5</text><g font-family="Arial" font-size="12" fill="#111">
<rect x="20" y="548" width="18" height="12" fill="#d5d7da" stroke="#222"/><text x="44" y="559">FIXED structure</text>
<rect x="183" y="548" width="18" height="12" fill="none" stroke="#135ea0" stroke-width="3"/><text x="207" y="559">ASSEMBLY structure</text>
<circle cx="390" cy="554" r="6" fill="#a82050"/><text x="403" y="559">PLAYER</text>
<path d="M480 555h27" stroke="#a82050" stroke-width="2" marker-end="url(#arrow)"/><text x="515" y="559">VIEW</text>
<path d="M587 555h27" stroke="#a86d00" stroke-width="3"/><text x="622" y="559">BEAM</text>
<path d="M704 555h27" stroke="#14834a" stroke-width="5"/><text x="739" y="559">VISIBLE envelope</text>
<rect x="20" y="578" width="18" height="12" fill="url(#hatch)" stroke="#222"/><text x="44" y="589">OCCLUDER (fixed)</text>
<rect x="225" y="578" width="18" height="12" fill="none" stroke="#754099" stroke-dasharray="5 3"/><text x="250" y="589">CANDIDATE envelope (unoccupied)</text>
<text x="600" y="589">Axes: x east; y north; z up. Metres.</text></g><text x="20" y="622" font-family="Arial" font-size="12">Visible shadow on a fixed wall still counts. No brightness exception, ignored shadow probe or forced C arrival.</text></svg>
